<svg width="112" height="98" viewBox="0 0 112 98" fill="none" xmlns="http://www.w3.org/2000/svg">
<path d="M14.5157 35.9656C14.3251 34.761 11.3269 36.027 10.7162 34.2411C10.0942 32.4747 12.641 31.9905 13.8751 31.4781C16.0122 30.575 18.3132 29.975 20.5878 29.6464C21.4759 29.5076 23.3007 29.5969 23.4852 30.9022C23.6075 31.7286 23.4314 32.3045 21.9183 33.2552C21.1098 33.7527 20.6887 34.0307 18.9305 34.6836C18.7048 35.0745 19.0429 35.843 19.2668 36.4935C23.94 50.1111 31.3485 61.7897 43.6838 69.7194C56.0079 77.6686 69.1826 80.0368 83.2477 74.8141C84.4983 74.3634 85.9886 74.1293 86.7123 73.1919C87.2501 72.486 87.1435 71.9033 86.9426 69.8588C86.8699 69.2174 87.3455 68.0326 88.3464 67.6983C90.0203 67.1011 90.7455 68.3277 90.9137 68.8939C92.0133 72.8124 92.2977 76.8336 92.2237 80.257C92.0008 81.275 91.145 81.7191 90.4472 81.8895C89.8727 82.027 88.9179 81.4236 88.4557 80.8701C87.9183 80.221 87.7013 79.2878 87.1859 78.1042C71.2556 84.7519 55.7278 83.3446 41.1891 74.2209C26.851 65.2913 17.6484 51.6648 14.5157 35.9656Z" fill="black"/>
<path d="M80.0428 45.1568C82.9521 39.9824 88.9799 37.9377 93.5032 40.5753C97.4402 42.8743 98.6338 48.932 96.0435 53.5087C93.5691 57.8396 87.4248 59.6347 83.1495 57.2445C78.8465 54.8123 77.509 49.6358 80.0428 45.1568ZM84.1311 46.7874C82.7483 49.2728 83.4023 52.0219 85.7118 53.3031C87.728 54.4151 90.7719 53.5664 91.8027 51.5554C93.093 49.0949 93.2557 45.8791 89.9643 44.4479C88.0924 43.6277 85.7396 43.9112 84.1311 46.7874Z" fill="#CD4631"/>
<path d="M47.5116 21.1104C44.8319 25.6616 38.8643 27.3762 34.4357 24.8454C30.2221 22.4387 29.0239 16.7954 31.9841 12.1195C35.5958 6.36039 39.9094 6.42719 44.9464 8.76195C48.891 10.5963 49.9687 16.8998 47.5116 21.1104ZM35.8844 13.8501C34.1947 16.7316 34.5057 19.804 36.5858 21.031C38.9005 22.3934 42.3791 21.3787 43.8123 18.8964C45.1326 16.6096 44.3246 13.2243 42.1798 12.0641C39.4569 10.5963 37.4304 11.1724 35.8844 13.8501Z" fill="#81ADC8"/>
</svg>
