<svg width="110" height="110" viewBox="0 0 110 110" fill="none" xmlns="http://www.w3.org/2000/svg">
<path d="M38.5243 38.66C36.2674 37.035 34.6198 35.8389 32.9722 34.6652C26.3368 29.9031 19.6563 25.1635 13.066 20.3336C11.4861 19.1826 9.99654 17.7607 8.89064 16.1809C8.2587 15.2329 8.05557 13.5402 8.48439 12.5472C8.73266 11.9604 10.7639 11.6444 11.7344 11.9829C14.1042 12.7729 16.4063 13.8562 18.5729 15.0975C25.3212 19.002 32.0018 23.042 38.9757 27.1947C39.6077 23.042 40.1493 18.9118 40.9167 14.8267C41.5035 11.667 42.316 8.50725 43.1962 5.41523C43.7604 3.40655 44.9566 1.66871 47.3715 2.00725C49.8768 2.34579 50.6893 4.3319 50.6441 6.56628C50.5538 13.2243 50.3281 19.8597 50.1927 26.5177C50.1476 28.0975 50.1927 29.6774 50.1927 31.2573C50.441 31.4829 52.5625 29.5871 53.5556 28.6166C62.0417 20.3111 70.5278 12.0507 79.1042 3.83537C80.3004 2.68433 81.8125 1.71384 83.3472 1.0819C84.1598 0.743358 85.6945 0.991622 86.2361 1.57843C86.7778 2.16523 86.8906 3.69996 86.507 4.48989C85.7847 6.00204 84.7014 7.37878 83.5504 8.6201C75.9896 16.9257 68.3837 25.1861 60.8004 33.4691C59.9653 34.3718 59.1302 35.3198 57.8889 36.6965C63.5764 36.2902 68.6997 35.8388 73.8229 35.568C84.1372 35.0489 94.474 34.6201 104.788 34.1687C105.42 34.1461 106.097 34.1461 106.639 34.259C110.182 35.0038 109.866 38.5472 107.203 38.9986C103.953 39.5628 100.681 40.2625 97.3854 40.601C85.5816 41.7746 73.7778 42.8128 61.974 43.9187C61.7257 43.9413 61.5 44.0316 60.7552 44.2347C64.0052 46.785 67.007 49.1322 70.0087 51.4569C75.6736 55.8805 81.4063 60.2364 86.9809 64.7503C88.4705 65.9691 89.7795 67.5715 90.7275 69.2416C91.7431 71.002 90.6823 72.5142 88.7413 72.0402C86.3716 71.4309 83.9341 70.4604 81.9254 69.0836C72.1302 62.4031 62.4705 55.5194 52.7656 48.7034C51.6823 47.9361 50.599 47.1687 49.0191 46.0177C48.6806 51.1409 48.4097 55.7451 48.0486 60.3493C46.9653 74.0489 45.882 87.7486 44.7535 101.448C44.6181 102.96 44.3247 104.495 43.8733 105.94C43.2639 107.926 41.9097 109.235 39.7205 109.077C37.6667 108.919 36.4705 107.542 36.1094 105.601C35.7709 103.75 35.5903 101.854 35.6129 99.9812C35.7483 87.7486 35.9514 75.5385 36.132 63.3059C36.1545 62.4031 36.132 61.5229 36.132 59.9656C35.0938 60.9586 34.3715 61.6132 33.6719 62.3128C25.8629 70.1218 18.0538 77.9534 10.2222 85.7625C9.34203 86.6427 8.34898 87.5229 7.2205 88.0194C6.45314 88.358 5.09898 88.3354 4.51217 87.8614C3.92536 87.3875 3.78995 86.0559 3.78995 85.2659C3.81252 82.7833 5.14411 81.6774 6.31773 80.2555C13.224 71.8823 20.2431 63.5767 27.3073 55.3163C29.8577 52.3371 32.6337 49.5611 35.9063 46.0854C29.7899 46.785 24.4861 47.4621 19.1823 47.9586C14.0816 48.4326 8.98092 48.726 3.85766 49.0871C3.31599 49.1323 2.75175 49.042 2.25523 48.9743C-0.340261 48.6583 1.12675 45.9048 1.87155 45.7243C6.99481 44.4604 12.1632 43.2416 17.3542 42.2937C23.5156 41.2329 37.125 39.134 38.5243 38.66Z" fill="black"/>
</svg>
