<svg width="300" height="54" viewBox="0 0 300 54" fill="none" xmlns="http://www.w3.org/2000/svg">
<path d="M24.3745 17.183V25.3659V28.6366V36.8194H31.3387V28.6366V25.3659V17.183H24.3745Z" fill="#FAB908"/>
<path d="M3.48252 28.5336C5.4056 28.5336 6.96455 27.0226 6.96455 25.1586C6.96455 23.2946 5.4056 21.7836 3.48252 21.7836C1.55945 21.7836 0.000488281 23.2946 0.000488281 25.1586C0.000488281 27.0226 1.55945 28.5336 3.48252 28.5336Z" fill="#0066D9"/>
<path d="M3.48252 32.2166C5.4056 32.2166 6.96455 30.7055 6.96455 28.8416C6.96455 26.9776 5.4056 25.4666 3.48252 25.4666C1.55945 25.4666 0.000488281 26.9776 0.000488281 28.8416C0.000488281 30.7055 1.55945 32.2166 3.48252 32.2166Z" fill="#0066D9"/>
<path d="M6.96455 25.1604H0.000488281V28.8422H6.96455V25.1604Z" fill="#0066D9"/>
<path d="M52.2304 32.2166C54.1536 32.2166 55.7124 30.7055 55.7124 28.8416C55.7124 26.9776 54.1536 25.4666 52.2304 25.4666C50.3074 25.4666 48.7484 26.9776 48.7484 28.8416C48.7484 30.7055 50.3074 32.2166 52.2304 32.2166Z" fill="#4285F4"/>
<path d="M52.2304 28.5336C54.1536 28.5336 55.7124 27.0226 55.7124 25.1586C55.7124 23.2946 54.1536 21.7836 52.2304 21.7836C50.3074 21.7836 48.7484 23.2946 48.7484 25.1586C48.7484 27.0226 50.3074 28.5336 52.2304 28.5336Z" fill="#4285F4"/>
<path d="M48.7484 28.8422H55.7124V25.1604H48.7484V28.8422Z" fill="#4285F4"/>
<path d="M15.5109 39.5801C17.434 39.5801 18.9929 38.0691 18.9929 36.2051C18.9929 34.3411 17.434 32.8301 15.5109 32.8301C13.5879 32.8301 12.0289 34.3411 12.0289 36.2051C12.0289 38.0691 13.5879 39.5801 15.5109 39.5801Z" fill="#EA4335"/>
<path d="M15.5109 43.2617C17.434 43.2617 18.9929 41.7506 18.9929 39.8866C18.9929 38.0227 17.434 36.5115 15.5109 36.5115C13.5879 36.5115 12.0289 38.0227 12.0289 39.8866C12.0289 41.7506 13.5879 43.2617 15.5109 43.2617Z" fill="#EA4335"/>
<path d="M18.9929 36.2051H12.0289V39.8869H18.9929V36.2051Z" fill="#EA4335"/>
<path d="M15.5109 17.4886C17.434 17.4886 18.9929 15.9776 18.9929 14.1137C18.9929 12.2497 17.434 10.7386 15.5109 10.7386C13.5879 10.7386 12.0289 12.2497 12.0289 14.1137C12.0289 15.9776 13.5879 17.4886 15.5109 17.4886Z" fill="#EA4335"/>
<path d="M15.5109 29.4535C17.434 29.4535 18.9929 27.9425 18.9929 26.0785C18.9929 24.2145 17.434 22.7035 15.5109 22.7035C13.5879 22.7035 12.0289 24.2145 12.0289 26.0785C12.0289 27.9425 13.5879 29.4535 15.5109 29.4535Z" fill="#EA4335"/>
<path d="M18.9929 14.1136H12.0289V26.1564H18.9929V14.1136Z" fill="#EA4335"/>
<path d="M40.202 21.1717C42.125 21.1717 43.684 19.6606 43.684 17.7967C43.684 15.9327 42.125 14.4216 40.202 14.4216C38.279 14.4216 36.72 15.9327 36.72 17.7967C36.72 19.6606 38.279 21.1717 40.202 21.1717Z" fill="#34A853"/>
<path d="M40.202 17.4886C42.125 17.4886 43.684 15.9776 43.684 14.1137C43.684 12.2497 42.125 10.7386 40.202 10.7386C38.279 10.7386 36.72 12.2497 36.72 14.1137C36.72 15.9776 38.279 17.4886 40.202 17.4886Z" fill="#34A853"/>
<path d="M36.7195 17.7955H43.6836V14.1136H36.7195V17.7955Z" fill="#34A853"/>
<path d="M27.8565 10.433C29.7797 10.433 31.3387 8.92198 31.3387 7.058C31.3387 5.19403 29.7797 3.68298 27.8565 3.68298C25.9335 3.68298 24.3745 5.19403 24.3745 7.058C24.3745 8.92198 25.9335 10.433 27.8565 10.433Z" fill="#FAB908"/>
<path d="M27.8565 6.75015C29.7797 6.75015 31.3387 5.2391 31.3387 3.37514C31.3387 1.51117 29.7797 0.00012207 27.8565 0.00012207C25.9335 0.00012207 24.3745 1.51117 24.3745 3.37514C24.3745 5.2391 25.9335 6.75015 27.8565 6.75015Z" fill="#FAB908"/>
<path d="M24.3745 7.05697H31.3387V3.37512H24.3745V7.05697Z" fill="#FAB908"/>
<path d="M27.8565 54.0002C29.7797 54.0002 31.3387 52.4891 31.3387 50.6251C31.3387 48.7612 29.7797 47.2501 27.8565 47.2501C25.9335 47.2501 24.3745 48.7612 24.3745 50.6251C24.3745 52.4891 25.9335 54.0002 27.8565 54.0002Z" fill="#FAB908"/>
<path d="M27.8565 50.319C29.7797 50.319 31.3387 48.808 31.3387 46.944C31.3387 45.08 29.7797 43.569 27.8565 43.569C25.9335 43.569 24.3745 45.08 24.3745 46.944C24.3745 48.808 25.9335 50.319 27.8565 50.319Z" fill="#FAB908"/>
<path d="M24.3745 50.6258H31.3387V46.944H24.3745V50.6258Z" fill="#FAB908"/>
<path d="M40.202 43.2617C42.125 43.2617 43.684 41.7506 43.684 39.8866C43.684 38.0227 42.125 36.5115 40.202 36.5115C38.279 36.5115 36.72 38.0227 36.72 39.8866C36.72 41.7506 38.279 43.2617 40.202 43.2617Z" fill="#34A853"/>
<path d="M40.202 31.2967C42.125 31.2967 43.684 29.7856 43.684 27.9216C43.684 26.0577 42.125 24.5466 40.202 24.5466C38.279 24.5466 36.72 26.0577 36.72 27.9216C36.72 29.7856 38.279 31.2967 40.202 31.2967Z" fill="#34A853"/>
<path d="M36.7195 39.8877H43.6836V27.9216H36.7195V39.8877Z" fill="#34A853"/>
<path d="M27.8565 20.5576C29.7797 20.5576 31.3387 19.0464 31.3387 17.1826C31.3387 15.3186 29.7797 13.8075 27.8565 13.8075C25.9335 13.8075 24.3745 15.3186 24.3745 17.1826C24.3745 19.0464 25.9335 20.5576 27.8565 20.5576Z" fill="#FAB908"/>
<path d="M27.8565 40.194C29.7797 40.194 31.3387 38.683 31.3387 36.819C31.3387 34.955 29.7797 33.444 27.8565 33.444C25.9335 33.444 24.3745 34.955 24.3745 36.819C24.3745 38.683 25.9335 40.194 27.8565 40.194Z" fill="#FAB908"/>
<path fill-rule="evenodd" clip-rule="evenodd" d="M183.935 35.4696H181.035V13.5989H188.725C190.637 13.5989 192.291 14.2149 193.688 15.4468C195.085 16.6789 195.784 18.2316 195.784 20.1051C195.784 21.9786 195.085 23.5313 193.688 24.7633C192.291 25.9953 190.637 26.6114 188.725 26.6114H183.935V35.4696ZM183.935 23.9233H188.788C190.007 23.9233 190.984 23.5262 191.719 22.7321C192.454 21.9378 192.822 21.0621 192.822 20.1051C192.822 19.148 192.454 18.2723 191.719 17.4782C190.984 16.6839 190.007 16.2869 188.788 16.2869H183.935V23.9233ZM198.188 22.3044C199.68 20.777 201.58 20.0134 203.892 20.0134C206.204 20.0134 208.105 20.772 209.596 22.2891C211.087 23.8062 211.833 25.705 211.833 27.9858C211.833 30.2666 211.087 32.1655 209.596 33.6826C208.105 35.1998 206.204 35.9582 203.892 35.9582C201.58 35.9582 199.68 35.1998 198.188 33.6826C196.697 32.1655 195.951 30.2666 195.951 27.9858C195.951 25.705 196.697 23.8113 198.188 22.3044ZM200.331 31.9262C201.34 32.9037 202.527 33.3925 203.892 33.3925C205.257 33.3925 206.44 32.8986 207.438 31.9109C208.435 30.9234 208.934 29.615 208.934 27.9858C208.934 26.3568 208.435 25.0484 207.438 24.0607C206.44 23.0731 205.257 22.5793 203.892 22.5793C202.527 22.5793 201.345 23.0731 200.346 24.0607C199.349 25.0484 198.85 26.3568 198.85 27.9858C198.85 29.615 199.343 30.9284 200.331 31.9262ZM220.572 35.9582C218.576 35.9582 216.854 35.1946 215.403 33.6673C213.955 32.1401 213.229 30.2462 213.229 27.9858C213.229 25.7254 213.955 23.8317 215.403 22.3044C216.854 20.777 218.576 20.0134 220.572 20.0134C221.748 20.0134 222.804 20.2579 223.739 20.7465C224.675 21.2353 225.373 21.8461 225.834 22.5793H225.961L225.834 20.5022V13.5989H228.735V35.4696H225.961V33.3925H225.834C225.373 34.1255 224.675 34.7364 223.739 35.2252C222.804 35.7139 221.748 35.9582 220.572 35.9582ZM221.045 33.3925C222.41 33.3925 223.571 32.9037 224.527 31.9262C225.483 30.9488 225.961 29.6354 225.961 27.9858C225.961 26.3364 225.483 25.023 224.527 24.0455C223.571 23.0681 222.41 22.5793 221.045 22.5793C219.7 22.5793 218.545 23.0731 217.578 24.0607C216.612 25.0484 216.128 26.3568 216.128 27.9858C216.128 29.615 216.612 30.9234 217.578 31.9109C218.545 32.8986 219.7 33.3925 221.045 33.3925ZM238.796 35.9582C236.486 35.9582 234.583 35.1998 233.092 33.6826C231.6 32.1655 230.855 30.2666 230.855 27.9858C230.855 25.705 231.6 23.8062 233.092 22.2891C234.583 20.772 236.486 20.0134 238.796 20.0134C240.519 20.0134 241.948 20.4207 243.081 21.2353C244.217 22.0498 245.046 23.0782 245.571 24.3203L242.925 25.3894C242.126 23.5159 240.687 22.5793 238.607 22.5793C237.326 22.5793 236.196 23.0884 235.219 24.1065C234.242 25.1247 233.754 26.4178 233.754 27.9858C233.754 29.5538 234.242 30.847 235.219 31.8651C236.196 32.8833 237.326 33.3925 238.607 33.3925C240.771 33.3925 242.263 32.4557 243.081 30.5823L245.665 31.6513C245.14 32.8732 244.296 33.8965 243.129 34.7211C241.963 35.5459 240.519 35.9582 238.796 35.9582ZM252.544 35.9582C250.907 35.9582 249.536 35.5001 248.432 34.5838C247.329 33.6673 246.778 32.4557 246.778 30.9488C246.778 29.3196 247.429 28.0419 248.732 27.1153C250.035 26.1888 251.642 25.7254 253.553 25.7254C255.255 25.7254 256.652 26.0309 257.744 26.6419V26.2142C257.744 25.1146 257.356 24.2339 256.579 23.572C255.801 22.9102 254.845 22.5793 253.711 22.5793C252.87 22.5793 252.109 22.7727 251.426 23.1597C250.744 23.5466 250.277 24.076 250.024 24.748L247.376 23.6484C247.734 22.7523 248.438 21.9226 249.488 21.159C250.538 20.3952 251.925 20.0134 253.648 20.0134C255.623 20.0134 257.262 20.5735 258.565 21.6935C259.867 22.8135 260.519 24.3916 260.519 26.428V35.4696H257.744V33.3925H257.618C256.463 35.1031 254.772 35.9582 252.544 35.9582ZM253.018 33.3925C254.215 33.3925 255.302 32.9596 256.279 32.0942C257.256 31.2288 257.744 30.2056 257.744 29.0244C256.926 28.3728 255.696 28.047 254.057 28.047C252.649 28.047 251.589 28.3422 250.875 28.9327C250.161 29.5233 249.803 30.2157 249.803 31.0098C249.803 31.7429 250.129 32.3234 250.78 32.751C251.432 33.1787 252.177 33.3925 253.018 33.3925ZM269.005 35.9582C267.282 35.9582 265.857 35.5509 264.734 34.7364C263.61 33.9219 262.785 32.9037 262.26 31.6819L264.844 30.6433C265.664 32.5168 267.061 33.4535 269.035 33.4535C269.939 33.4535 270.68 33.2601 271.257 32.8732C271.835 32.4863 272.124 31.9771 272.124 31.3459C272.124 30.3683 271.42 29.7066 270.012 29.3604L266.892 28.6273C265.905 28.3829 264.97 27.9197 264.087 27.2375C263.206 26.5553 262.765 25.6339 262.765 24.4731C262.765 23.1494 263.368 22.0753 264.576 21.2505C265.784 20.4259 267.218 20.0134 268.878 20.0134C270.243 20.0134 271.462 20.3138 272.534 20.9145C273.605 21.5154 274.372 22.3757 274.835 23.4957L272.313 24.5037C271.745 23.18 270.569 22.5183 268.784 22.5183C267.923 22.5183 267.197 22.6913 266.609 23.0374C266.02 23.3837 265.727 23.8521 265.727 24.4425C265.727 25.2978 266.41 25.8782 267.775 26.1837L270.832 26.8862C272.281 27.2121 273.353 27.772 274.046 28.5663C274.74 29.3604 275.086 30.2564 275.086 31.2543C275.086 32.5982 274.52 33.7182 273.384 34.6143C272.251 35.5103 270.79 35.9582 269.005 35.9582ZM283.762 35.7139C282.144 35.7139 280.91 35.2965 280.059 34.4616C279.207 33.6266 278.782 32.4456 278.782 30.9183V23.0681H276.072V20.5022H278.782V15.9203H281.682V20.5022H285.463V23.0681H281.682V30.7045C281.682 32.3335 282.376 33.148 283.762 33.148C284.287 33.148 284.728 33.0666 285.084 32.9037L286.093 35.3167C285.463 35.5816 284.686 35.7139 283.762 35.7139ZM293.917 35.9582C292.195 35.9582 290.772 35.5509 289.649 34.7364C288.524 33.9219 287.699 32.9037 287.174 31.6819L289.758 30.6433C290.577 32.5168 291.974 33.4535 293.949 33.4535C294.853 33.4535 295.593 33.2601 296.171 32.8732C296.749 32.4863 297.037 31.9771 297.037 31.3459C297.037 30.3683 296.334 29.7066 294.926 29.3604L291.807 28.6273C290.819 28.3829 289.884 27.9197 289.002 27.2375C288.119 26.5553 287.678 25.6339 287.678 24.4731C287.678 23.1494 288.282 22.0753 289.49 21.2505C290.699 20.4259 292.132 20.0134 293.793 20.0134C295.158 20.0134 296.377 20.3138 297.448 20.9145C298.519 21.5154 299.286 22.3757 299.748 23.4957L297.227 24.5037C296.66 23.18 295.483 22.5183 293.697 22.5183C292.835 22.5183 292.111 22.6913 291.523 23.0374C290.934 23.3837 290.641 23.8521 290.641 24.4425C290.641 25.2978 291.323 25.8782 292.689 26.1837L295.745 26.8862C297.195 27.2121 298.267 27.772 298.961 28.5663C299.653 29.3604 300 30.2564 300 31.2543C300 32.5982 299.433 33.7182 298.299 34.6143C297.163 35.5103 295.704 35.9582 293.917 35.9582Z" fill="#14142B"/>
<path d="M70.9308 23.421C70.9308 16.5006 76.9136 10.8926 84.0534 10.8926C87.9927 10.8926 90.7995 12.396 92.9168 14.3528L90.4055 16.7631C88.9037 15.379 86.8602 14.3051 84.0534 14.3051C78.8586 14.3051 74.7963 18.3619 74.7963 23.3972C74.7963 28.4325 78.8586 32.4893 84.0534 32.4893C87.4265 32.4893 89.3469 31.1767 90.5779 29.9835C91.5874 29.0052 92.2521 27.5973 92.4982 25.6881H84.0534V22.2756H95.945C96.0681 22.896 96.1421 23.6119 96.1421 24.4233C96.1421 27.0006 95.4281 30.1744 93.0891 32.4177C90.7995 34.7086 87.8943 35.9256 84.0534 35.9256C76.9136 35.9256 70.9308 30.3177 70.9308 23.421ZM105.621 19.9609C110.225 19.9609 113.967 23.3494 113.967 28.0267C113.967 32.6802 110.225 36.0927 105.621 36.0927C101.017 36.0927 97.2745 32.6802 97.2745 28.0267C97.2745 23.3494 101.017 19.9609 105.621 19.9609ZM105.621 32.8949C108.132 32.8949 110.323 30.8905 110.323 28.0029C110.323 25.0915 108.132 23.1109 105.621 23.1109C103.085 23.1109 100.918 25.0915 100.918 28.0029C100.918 30.8905 103.11 32.8949 105.621 32.8949ZM123.84 19.9609C128.444 19.9609 132.186 23.3494 132.186 28.0267C132.186 32.6802 128.444 36.0927 123.84 36.0927C119.236 36.0927 115.494 32.6802 115.494 28.0267C115.494 23.3494 119.236 19.9609 123.84 19.9609ZM123.84 32.8949C126.351 32.8949 128.542 30.8905 128.542 28.0029C128.542 25.0915 126.376 23.1109 123.84 23.1109C121.304 23.1109 119.137 25.0915 119.137 28.0029C119.137 30.8905 121.329 32.8949 123.84 32.8949ZM146.195 20.2233H149.691V34.7086C149.691 40.6746 146.072 43.1086 141.788 43.1086C137.75 43.1086 135.313 40.4837 134.402 38.336L137.578 37.0472C138.144 38.3598 139.523 39.911 141.763 39.911C144.496 39.911 146.195 38.2644 146.195 35.1859V34.0165H146.072C145.26 34.995 143.684 35.854 141.69 35.854C137.529 35.854 133.713 32.3222 133.713 27.812C133.713 23.254 137.529 19.7222 141.69 19.7222C143.684 19.7222 145.26 20.5812 146.072 21.5359H146.195V20.2233ZM142.01 32.6802C144.496 32.6802 146.466 30.6518 146.441 27.812C146.441 24.9722 144.496 22.896 142.01 22.896C139.498 22.896 137.381 24.9722 137.381 27.812C137.381 30.628 139.498 32.6802 142.01 32.6802ZM152.178 35.5438V11.8471H155.821V35.5438H152.178ZM165.843 32.8949C167.713 32.8949 168.993 32.0119 169.953 30.6756L172.786 32.5131C171.85 33.8256 169.658 36.0927 165.843 36.0927C161.114 36.0927 157.594 32.537 157.594 28.0267C157.594 23.2301 161.165 19.9609 165.449 19.9609C169.757 19.9609 171.874 23.2779 172.563 25.0915L172.933 25.9983L161.804 30.4609C162.667 32.0597 163.971 32.8949 165.843 32.8949ZM165.572 23.0631C163.7 23.0631 161.114 24.662 161.213 27.7642L168.649 24.7813C168.255 23.7552 167.024 23.0631 165.572 23.0631Z" fill="#14142B"/>
</svg>
