<svg width="195" height="54" viewBox="0 0 195 54" fill="none" xmlns="http://www.w3.org/2000/svg">
<path d="M26.437 0.0509033C21.2769 0.0509033 16.2328 1.62894 11.9424 4.58543C7.65219 7.54208 4.30828 11.7444 2.33353 16.6609C0.358934 21.5775 -0.15771 26.9876 0.849017 32.2069C1.85559 37.4264 4.34031 42.2207 7.98899 45.9837C11.6377 49.7466 16.2864 52.3093 21.3472 53.3474C26.408 54.3856 31.6537 53.8529 36.4208 51.8163C41.188 49.7797 45.2626 46.3311 48.1293 41.9063C50.9961 37.4815 52.5261 32.2794 52.5261 26.9577C52.5261 19.8215 49.7775 12.9777 44.8848 7.93177C39.992 2.88565 33.3563 0.0509033 26.437 0.0509033ZM38.4092 38.8543C38.2982 39.0444 38.1516 39.2098 37.9781 39.3411C37.8045 39.4723 37.6074 39.5665 37.3981 39.6185C37.1889 39.6704 36.9717 39.679 36.7592 39.6436C36.5467 39.6082 36.3432 39.5298 36.1605 39.4126C30.0391 35.5472 22.3351 34.6883 13.257 36.8142C13.0504 36.8651 12.8362 36.8731 12.6266 36.8377C12.4172 36.8025 12.2164 36.7247 12.0364 36.609C11.8562 36.4931 11.7002 36.3415 11.5773 36.1629C11.4543 35.9843 11.3672 35.7823 11.3206 35.5687C11.271 35.3544 11.2631 35.1321 11.2969 34.9145C11.3309 34.697 11.4061 34.4885 11.5182 34.3009C11.6304 34.1135 11.7775 33.9507 11.9506 33.8219C12.124 33.693 12.3202 33.6007 12.5281 33.5501C22.46 31.2095 30.9968 32.2187 37.868 36.5565C38.2345 36.7877 38.4974 37.1594 38.5987 37.59C38.7003 38.0207 38.6321 38.4753 38.4092 38.8543ZM41.5949 31.5316C41.304 31.9933 40.8522 32.3218 40.3329 32.4497C39.8137 32.5776 39.2667 32.4949 38.8049 32.2187C30.8881 27.6642 21.5421 26.5366 12.8197 29.0835C12.5483 29.2397 12.2464 29.3311 11.9364 29.3512C11.6261 29.3712 11.3156 29.3194 11.0274 29.1996C10.7392 29.0797 10.4807 28.895 10.2708 28.6586C10.0609 28.4224 9.90485 28.1405 9.81424 27.8341C9.72363 27.5274 9.70071 27.2039 9.74715 26.887C9.79359 26.5701 9.90818 26.268 10.0826 26.0028C10.257 25.7375 10.4868 25.516 10.7549 25.3541C11.0233 25.1924 11.3232 25.0945 11.6328 25.068C16.5013 23.6226 21.6008 23.1952 26.6317 23.8111C31.6626 24.4269 36.5235 26.0735 40.9286 28.6542C41.3762 28.9542 41.6948 29.4202 41.8188 29.9556C41.9428 30.4912 41.8627 31.0553 41.5949 31.5316ZM41.8656 23.9084C33.537 18.7546 19.6076 18.2822 11.5704 20.7946C10.952 20.9884 10.2841 20.9206 9.71407 20.6064C9.144 20.2924 8.71827 19.7576 8.53052 19.1197C8.34278 18.4819 8.40834 17.7932 8.71296 17.2051C9.01742 16.6173 9.53603 16.1782 10.1545 15.9846C19.3785 13.107 34.6822 13.6654 44.3642 19.5706C44.8619 19.938 45.2073 20.4852 45.3318 21.1033C45.4561 21.7213 45.3503 22.3651 45.0354 22.9065C44.7205 23.4478 44.2194 23.847 43.6322 24.0246C43.0449 24.2024 42.4141 24.1456 41.8656 23.8654V23.9084Z" fill="#1ED760"/>
<path d="M79.7465 22.697C74.7485 21.4515 73.8531 20.5498 73.8531 18.7889C73.8531 17.028 75.4148 15.9114 77.7476 15.9114C80.2474 16.008 82.6484 16.9514 84.576 18.5956C84.6155 18.6163 84.658 18.627 84.702 18.627C84.7445 18.627 84.7885 18.6163 84.8264 18.5956C84.9084 18.5794 84.9828 18.5337 85.0344 18.4668L87.4916 14.9021C87.5402 14.8378 87.5675 14.7584 87.5675 14.6766C87.5675 14.5948 87.5402 14.5154 87.4916 14.4511C84.7824 12.1641 81.372 10.9461 77.8721 11.0152C72.4795 11.0152 68.7109 14.3652 68.7109 19.1325C68.7109 24.2646 71.9589 26.09 77.5807 27.4858C82.3692 28.6239 83.1812 29.6332 83.1812 31.2867C83.1812 32.9401 81.5359 34.3359 79.0165 34.3359C76.0386 34.3147 73.1852 33.0976 71.0634 30.9431C70.983 30.9152 70.895 30.9152 70.813 30.9431C70.728 30.9643 70.6491 31.0088 70.5838 31.072L67.7942 34.4003C67.7365 34.4641 67.7031 34.5487 67.7031 34.6365C67.7031 34.7245 67.7365 34.8089 67.7942 34.8727C70.8251 37.6729 74.7607 39.2045 78.8298 39.1676C84.6382 39.1676 88.4083 35.882 88.4083 30.8143C88.3249 26.5839 85.8251 24.2217 79.7465 22.697Z" fill="black"/>
<path d="M101.484 17.605C100.28 17.5973 99.092 17.8741 98.0098 18.4138C96.9262 18.9535 95.9776 19.742 95.2369 20.7188V18.3566C95.2323 18.2693 95.1944 18.1873 95.1322 18.1275C95.0699 18.0677 94.988 18.0343 94.9045 18.0345H90.3862C90.3012 18.0343 90.2192 18.0677 90.157 18.1275C90.0947 18.1873 90.0583 18.2693 90.0522 18.3566V44.5548C90.0522 44.6459 90.0872 44.7334 90.1494 44.7978C90.2131 44.8622 90.2966 44.8984 90.3862 44.8984H94.862C94.95 44.8984 95.035 44.8622 95.0973 44.7978C95.1595 44.7334 95.1959 44.6459 95.1959 44.5548V36.3303C95.9609 37.266 96.9186 38.0153 97.9992 38.5239C99.0783 39.0326 100.255 39.2881 101.441 39.2721C106.127 39.2721 110.874 35.5573 110.874 28.4278C110.874 21.2986 106.168 17.605 101.484 17.605ZM105.647 28.3419C105.726 29.11 105.649 29.8862 105.421 30.6217C105.193 31.3572 104.82 32.036 104.325 32.6152C103.829 33.1943 103.223 33.6612 102.545 33.9867C101.865 34.3119 101.129 34.4885 100.381 34.505C99.6293 34.481 98.8916 34.3006 98.2102 33.9745C97.5287 33.6483 96.9186 33.1833 96.4177 32.6073C95.9153 32.0314 95.5313 31.3564 95.2885 30.6234C95.0472 29.8903 94.9516 29.1142 95.0077 28.3419C94.9546 27.5714 95.0517 26.7977 95.2961 26.0671C95.5389 25.3367 95.9229 24.6643 96.4253 24.0907C96.9262 23.5172 97.5363 23.0541 98.2147 22.7291C98.8947 22.4043 99.6308 22.2245 100.381 22.2005C101.138 22.2139 101.885 22.39 102.572 22.7174C103.26 23.0449 103.874 23.5166 104.375 24.1024C104.878 24.6883 105.256 25.3755 105.485 26.1203C105.714 26.865 105.791 27.6508 105.709 28.4278L105.647 28.3419Z" fill="black"/>
<path d="M123.075 17.6062C120.995 17.6446 118.971 18.3176 117.261 19.5402C115.55 20.7629 114.23 22.4806 113.465 24.4765C112.7 26.4724 112.525 28.6574 112.963 30.7555C113.401 32.8537 114.432 34.7712 115.924 36.2663C117.417 37.7613 119.307 38.7668 121.353 39.1559C123.399 39.5451 125.511 39.3005 127.424 38.4531C129.335 37.6056 130.962 36.1931 132.095 34.3938C133.231 32.5947 133.823 30.4893 133.798 28.3432C133.779 26.9117 133.487 25.4978 132.938 24.183C132.387 22.8682 131.591 21.6781 130.596 20.6808C129.6 19.6834 128.422 18.8985 127.132 18.3709C125.842 17.8434 124.463 17.5835 123.075 17.6062ZM123.075 34.6351C122.306 34.6247 121.547 34.454 120.843 34.1331C120.14 33.8124 119.506 33.3482 118.98 32.7684C118.455 32.1888 118.05 31.5056 117.788 30.7598C117.525 30.014 117.411 29.2212 117.454 28.4291C117.405 27.6478 117.513 26.8646 117.768 26.1277C118.024 25.3909 118.425 24.7159 118.944 24.1446C119.463 23.5732 120.09 23.1175 120.785 22.8055C121.482 22.4935 122.233 22.3318 122.992 22.3306C123.763 22.3354 124.526 22.5011 125.234 22.8178C125.942 23.1344 126.581 23.5955 127.113 24.1731C127.642 24.7508 128.055 25.4333 128.324 26.1793C128.592 26.9254 128.712 27.7199 128.676 28.515C128.724 29.3027 128.615 30.0924 128.356 30.8346C128.096 31.5771 127.691 32.2564 127.166 32.8303C126.639 33.4044 126.006 33.8608 125.302 34.1712C124.598 34.4818 123.84 34.6395 123.075 34.6351Z" fill="black"/>
<path d="M146.687 18.0362H141.753V12.8396C141.753 12.7521 141.721 12.6678 141.662 12.6038C141.604 12.54 141.525 12.5015 141.44 12.496H136.963C136.875 12.496 136.79 12.5321 136.727 12.5966C136.665 12.661 136.63 12.7485 136.63 12.8396V18.0362H134.423C134.383 18.0362 134.342 18.0445 134.304 18.0608C134.266 18.0769 134.231 18.1007 134.202 18.1306C134.173 18.1604 134.15 18.1959 134.135 18.2351C134.118 18.2741 134.111 18.3161 134.111 18.3583V22.331C134.111 22.4185 134.143 22.5028 134.2 22.5667C134.26 22.6305 134.338 22.669 134.423 22.6746H136.506V32.9391C136.506 37.0836 138.587 39.1881 142.46 39.1881C143.917 39.2305 145.357 38.859 146.625 38.1143C146.675 38.0894 146.719 38.0498 146.748 38.0002C146.778 37.9506 146.792 37.8933 146.792 37.8352V34.0557C146.792 33.9973 146.779 33.9394 146.754 33.8871C146.728 33.8348 146.691 33.7895 146.646 33.7551C146.596 33.7227 146.538 33.7055 146.479 33.7055C146.42 33.7055 146.362 33.7227 146.312 33.7551C145.499 34.1798 144.6 34.4006 143.688 34.3993C142.252 34.3993 141.607 33.7336 141.607 32.2519V22.6746H146.541C146.629 22.6746 146.714 22.6384 146.776 22.574C146.839 22.5096 146.874 22.4221 146.874 22.331V18.3583C146.877 18.2916 146.86 18.2258 146.827 18.1685C146.793 18.1113 146.745 18.0654 146.687 18.0362Z" fill="black"/>
<path d="M163.863 18.0582V17.414C163.863 15.5244 164.55 14.6869 166.112 14.6869C166.98 14.6972 167.841 14.8644 168.653 15.1808C168.698 15.2021 168.749 15.2132 168.799 15.2132C168.849 15.2132 168.899 15.2021 168.944 15.1808C168.984 15.1475 169.017 15.1049 169.038 15.0564C169.06 15.0079 169.07 14.955 169.069 14.9017V10.9719C169.072 10.8966 169.052 10.8222 169.011 10.7601C168.969 10.6981 168.909 10.6518 168.84 10.6283C167.624 10.2984 166.369 10.1538 165.114 10.1988C160.949 10.1988 158.866 12.6039 158.866 17.135V18.1226H156.784C156.702 18.1226 156.622 18.1566 156.564 18.217C156.505 18.2775 156.471 18.3593 156.471 18.4447V22.4389C156.471 22.5264 156.503 22.6107 156.563 22.6747C156.62 22.7385 156.699 22.777 156.784 22.7825H158.866V38.6303C158.866 38.7157 158.9 38.7977 158.958 38.858C159.017 38.9185 159.096 38.9524 159.179 38.9524H163.571C163.656 38.9526 163.738 38.9193 163.801 38.8594C163.863 38.7996 163.899 38.7176 163.905 38.6303V22.6751H168.07L174.483 38.5015C173.754 40.1764 173.026 40.4986 172.047 40.4986C171.183 40.4744 170.339 40.2309 169.589 39.7899C169.547 39.7689 169.501 39.758 169.454 39.758C169.407 39.758 169.362 39.7689 169.319 39.7899C169.277 39.8024 169.239 39.8242 169.207 39.8539C169.174 39.8837 169.148 39.9205 169.131 39.9617L167.736 43.3759C167.706 43.4536 167.704 43.5401 167.73 43.6193C167.757 43.6982 167.811 43.7645 167.882 43.8054C169.337 44.6663 170.993 45.1041 172.67 45.0724C175.961 45.0724 177.793 43.4833 179.417 39.2101L187.183 18.5092C187.209 18.4596 187.223 18.4043 187.223 18.3481C187.223 18.292 187.209 18.2368 187.183 18.187C187.151 18.1454 187.11 18.112 187.063 18.0898C187.016 18.0674 186.965 18.0566 186.913 18.0582H182.125C182.058 18.0626 181.994 18.0847 181.939 18.1225C181.885 18.16 181.841 18.212 181.812 18.2729L177.043 32.3384L171.901 18.2729C171.875 18.209 171.833 18.1542 171.776 18.116C171.72 18.0776 171.655 18.0576 171.588 18.0582H163.863Z" fill="black"/>
<path d="M153.911 18.0385H149.435C149.252 18.0385 149.102 18.1922 149.102 18.382V38.5245C149.102 38.7143 149.252 38.8681 149.435 38.8681H153.911C154.096 38.8681 154.245 38.7143 154.245 38.5245V18.382C154.245 18.1922 154.096 18.0385 153.911 18.0385Z" fill="black"/>
<path d="M151.683 8.84663C151.044 8.84236 150.418 9.03405 149.885 9.39706C149.351 9.76023 148.935 10.2786 148.687 10.8864C148.44 11.4943 148.373 12.1641 148.495 12.8111C148.617 13.4582 148.923 14.0533 149.373 14.521C149.824 14.9886 150.399 15.3077 151.025 15.4379C151.652 15.568 152.301 15.5035 152.893 15.2522C153.483 15.0009 153.989 14.5742 154.344 14.0265C154.701 13.4787 154.89 12.8344 154.89 12.1751C154.892 11.739 154.811 11.3067 154.652 10.9029C154.491 10.4992 154.256 10.1322 153.958 9.82276C153.659 9.51343 153.306 9.2679 152.916 9.10037C152.524 8.93284 152.107 8.84663 151.683 8.84663Z" fill="black"/>
<path d="M190.911 24.5001C190.497 24.503 190.087 24.421 189.705 24.2592C189.322 24.0972 188.975 23.8584 188.682 23.5568C188.389 23.2551 188.158 22.8965 188 22.5019C187.844 22.1072 187.765 21.6842 187.768 21.2577C187.768 20.3919 188.1 19.5617 188.694 18.9495C189.287 18.3375 190.093 17.9936 190.932 17.9936C191.345 17.9908 191.755 18.0727 192.139 18.2346C192.521 18.3966 192.869 18.6353 193.162 18.9369C193.453 19.2386 193.686 19.5972 193.842 19.992C194 20.3865 194.079 20.8096 194.076 21.2362C194.076 22.1018 193.743 22.932 193.15 23.5442C192.555 24.1562 191.75 24.5001 190.911 24.5001ZM190.911 18.3157C190.345 18.3114 189.791 18.4809 189.319 18.8025C188.847 19.1242 188.478 19.5833 188.26 20.1217C188.041 20.6602 187.982 21.2536 188.091 21.8263C188.2 22.3988 188.474 22.9251 188.873 23.3378C189.274 23.7506 189.783 24.0312 190.339 24.1439C190.894 24.2568 191.47 24.1966 191.992 23.9713C192.514 23.746 192.959 23.3656 193.271 22.8787C193.582 22.3915 193.746 21.8198 193.743 21.2362C193.746 20.8536 193.675 20.4743 193.535 20.1202C193.394 19.766 193.188 19.4439 192.927 19.1723C192.666 18.9009 192.355 18.6854 192.013 18.5383C191.67 18.3913 191.303 18.3157 190.932 18.3157H190.911ZM191.618 21.5796L192.494 22.8681H191.744L190.952 21.6872H190.266V22.8681H189.62V19.4538H191.099C191.869 19.4538 192.389 19.8618 192.389 20.5275C192.394 20.7634 192.323 20.9945 192.188 21.1846C192.053 21.3748 191.86 21.5136 191.64 21.5796H191.618ZM191.078 20.0336H190.266V21.1074H191.078C191.494 21.1074 191.744 20.9141 191.744 20.5705C191.744 20.2269 191.515 20.0336 191.099 20.0336H191.078Z" fill="black"/>
</svg>
